<svg width="16" height="12" viewBox="0 0 16 12" fill="none" xmlns="http://www.w3.org/2000/svg">
<path d="M5.72845 1.23737C5.72845 0.821366 5.98412 0.613366 6.49545 0.613366C7.01545 0.613366 7.27545 0.821366 7.27545 1.23737V10.4544C7.27545 10.8704 7.01545 11.0784 6.49545 11.0784C5.98412 11.0784 5.72845 10.8704 5.72845 10.4544V1.23737ZM1.77645 10.4544C1.77645 10.8704 1.51645 11.0784 0.996453 11.0784C0.48512 11.0784 0.229453 10.8704 0.229453 10.4544V1.23737C0.229453 0.821366 0.48512 0.613366 0.996453 0.613366C1.51645 0.613366 1.77645 0.821366 1.77645 1.23737V10.4544ZM4.81845 5.63137C4.81845 5.9347 4.71445 6.19037 4.50645 6.39837C4.29845 6.60637 4.04279 6.71037 3.73945 6.71037C3.44479 6.71037 3.19345 6.60637 2.98545 6.39837C2.77745 6.19037 2.67345 5.9347 2.67345 5.63137C2.67345 5.32803 2.77745 5.07237 2.98545 4.86437C3.19345 4.65637 3.44479 4.55237 3.73945 4.55237C4.04279 4.55237 4.29845 4.65637 4.50645 4.86437C4.71445 5.07237 4.81845 5.32803 4.81845 5.63137ZM12.0006 7.17837C11.8533 7.17837 11.7363 7.12203 11.6496 7.00937C11.5716 6.88803 11.5326 6.7277 11.5326 6.52837C11.5326 6.08637 11.7146 5.86537 12.0786 5.86537H13.4566C13.7773 5.86537 14.0026 5.77437 14.1326 5.59237C14.2713 5.41037 14.3406 5.21103 14.3406 4.99437V2.86237C14.3406 2.6457 14.2713 2.44637 14.1326 2.26437C14.0026 2.08237 13.7773 1.99137 13.4566 1.99137H10.7266V10.4804C10.7266 10.8964 10.4666 11.1044 9.94665 11.1044C9.44398 11.1044 9.19265 10.8964 9.19265 10.4804V1.45837C9.19265 1.14637 9.27065 0.938366 9.42665 0.834365C9.58265 0.730366 9.77332 0.678366 9.99865 0.678366H13.7946C14.0113 0.678366 14.241 0.726032 14.4836 0.821366C14.7263 0.916699 14.9603 1.03803 15.1856 1.18537H15.1726C15.398 1.35003 15.5713 1.5667 15.6926 1.83537C15.814 2.09537 15.8746 2.3987 15.8746 2.74537V5.09837C15.8746 5.80037 15.6406 6.3247 15.1726 6.67137C14.9473 6.83603 14.7176 6.9617 14.4836 7.04837C14.2496 7.13503 14.02 7.17837 13.7946 7.17837H12.0006Z" fill="#FF6B8B"/>
</svg>
