<svg width="31" height="11" viewBox="0 0 31 11" fill="none" xmlns="http://www.w3.org/2000/svg">
<path d="M5.5556 0.737732C5.5556 0.321732 5.81127 0.113732 6.3226 0.113732C6.8426 0.113732 7.1026 0.321732 7.1026 0.737732V9.95473C7.1026 10.3707 6.8426 10.5787 6.3226 10.5787C5.81127 10.5787 5.5556 10.3707 5.5556 9.95473V0.737732ZM1.6036 9.95473C1.6036 10.3707 1.3436 10.5787 0.823602 10.5787C0.312268 10.5787 0.0566016 10.3707 0.0566016 9.95473V0.737732C0.0566016 0.321732 0.312268 0.113732 0.823602 0.113732C1.3436 0.113732 1.6036 0.321732 1.6036 0.737732V9.95473ZM4.6456 5.13173C4.6456 5.43507 4.5416 5.69073 4.3336 5.89873C4.1256 6.10673 3.86994 6.21073 3.5666 6.21073C3.27194 6.21073 3.0206 6.10673 2.8126 5.89873C2.6046 5.69073 2.5006 5.43507 2.5006 5.13173C2.5006 4.8284 2.6046 4.57273 2.8126 4.36473C3.0206 4.15673 3.27194 4.05273 3.5666 4.05273C3.86994 4.05273 4.1256 4.15673 4.3336 4.36473C4.5416 4.57273 4.6456 4.8284 4.6456 5.13173ZM11.8278 6.67873C11.6805 6.67873 11.5635 6.6224 11.4768 6.50973C11.3988 6.3884 11.3598 6.22807 11.3598 6.02873C11.3598 5.58673 11.5418 5.36573 11.9058 5.36573H13.2838C13.6045 5.36573 13.8298 5.27473 13.9598 5.09273C14.0985 4.91073 14.1678 4.7114 14.1678 4.49473V2.36273C14.1678 2.14607 14.0985 1.94673 13.9598 1.76473C13.8298 1.58273 13.6045 1.49173 13.2838 1.49173H10.5538V9.98073C10.5538 10.3967 10.2938 10.6047 9.7738 10.6047C9.27113 10.6047 9.0198 10.3967 9.0198 9.98073V0.958732C9.0198 0.646732 9.0978 0.438732 9.2538 0.334732C9.4098 0.230732 9.60046 0.178732 9.8258 0.178732H13.6218C13.8385 0.178732 14.0681 0.226399 14.3108 0.321732C14.5535 0.417065 14.7875 0.538399 15.0128 0.685732H14.9998C15.2251 0.850398 15.3985 1.06707 15.5198 1.33573C15.6411 1.59573 15.7018 1.89907 15.7018 2.24573V4.59873C15.7018 5.30073 15.4678 5.82507 14.9998 6.17173C14.7745 6.3364 14.5448 6.46207 14.3108 6.54873C14.0768 6.6354 13.8471 6.67873 13.6218 6.67873H11.8278ZM22.9402 9.99373C22.9402 10.4011 22.7018 10.6047 22.2252 10.6047C21.7398 10.6047 21.4972 10.4011 21.4972 9.99373V0.672732C21.4972 0.265399 21.7398 0.061732 22.2252 0.061732C22.7018 0.061732 22.9402 0.265399 22.9402 0.672732V9.99373ZM27.3855 10.5787C27.3682 10.5787 27.3465 10.5744 27.3205 10.5657C27.2945 10.5657 27.2685 10.5657 27.2425 10.5657C27.1992 10.5657 27.1385 10.5657 27.0605 10.5657C26.9825 10.5657 26.9089 10.5614 26.8395 10.5527C26.6922 10.5441 26.5665 10.5051 26.4625 10.4357C26.3585 10.3577 26.2849 10.2667 26.2415 10.1627L24.0575 3.45473C24.0142 3.27273 24.0359 3.1124 24.1225 2.97373C24.2179 2.8264 24.3652 2.71807 24.5645 2.64873C24.6252 2.6314 24.6859 2.6184 24.7465 2.60973C24.8072 2.60107 24.8592 2.59673 24.9025 2.59673C25.1712 2.59673 25.3575 2.74407 25.4615 3.03873L26.4105 5.98973L27.4115 9.08373L29.3615 3.03873C29.4569 2.7354 29.6302 2.58373 29.8815 2.58373C29.9769 2.58373 30.0982 2.6054 30.2455 2.64873C30.4709 2.7094 30.6269 2.8134 30.7135 2.96073C30.8002 3.0994 30.8132 3.26407 30.7525 3.45473L28.5815 10.1627C28.5035 10.4054 28.2999 10.5354 27.9705 10.5527C27.9532 10.5527 27.9315 10.5527 27.9055 10.5527C27.8882 10.5614 27.8709 10.5657 27.8535 10.5657C27.7842 10.5744 27.7235 10.5787 27.6715 10.5787C27.6195 10.5787 27.5719 10.5787 27.5285 10.5787H27.3855Z" fill="#FF6B8B"/>
</svg>
