<svg width="31" height="11" viewBox="0 0 31 11" fill="none" xmlns="http://www.w3.org/2000/svg">
<path d="M1.58019 10.5137C1.25952 10.5137 1.04286 10.4314 0.930191 10.2667C0.817525 10.1021 0.761191 9.92007 0.761191 9.72073V0.737732C0.761191 0.321732 1.01252 0.113732 1.51519 0.113732C2.03519 0.113732 2.29519 0.321732 2.29519 0.737732V9.20073H6.63719C6.94919 9.20073 7.10519 9.41307 7.10519 9.83773C7.12253 10.2884 6.96653 10.5137 6.63719 10.5137H1.58019ZM11.1232 6.67873C10.9759 6.67873 10.8589 6.6224 10.7722 6.50973C10.6942 6.3884 10.6552 6.22807 10.6552 6.02873C10.6552 5.58673 10.8372 5.36573 11.2012 5.36573H12.5792C12.8999 5.36573 13.1252 5.27473 13.2552 5.09273C13.3939 4.91073 13.4632 4.7114 13.4632 4.49473V2.36273C13.4632 2.14607 13.3939 1.94673 13.2552 1.76473C13.1252 1.58273 12.8999 1.49173 12.5792 1.49173H9.84921V9.98073C9.84921 10.3967 9.58921 10.6047 9.06921 10.6047C8.56654 10.6047 8.31521 10.3967 8.31521 9.98073V0.958732C8.31521 0.646732 8.39321 0.438732 8.54921 0.334732C8.70521 0.230732 8.89587 0.178732 9.12121 0.178732H12.9172C13.1339 0.178732 13.3635 0.226399 13.6062 0.321732C13.8489 0.417065 14.0829 0.538399 14.3082 0.685732H14.2952C14.5205 0.850398 14.6939 1.06707 14.8152 1.33573C14.9365 1.59573 14.9972 1.89907 14.9972 2.24573V4.59873C14.9972 5.30073 14.7632 5.82507 14.2952 6.17173C14.0699 6.3364 13.8402 6.46207 13.6062 6.54873C13.3722 6.6354 13.1425 6.67873 12.9172 6.67873H11.1232ZM22.2356 9.99373C22.2356 10.4011 21.9972 10.6047 21.5206 10.6047C21.0352 10.6047 20.7926 10.4011 20.7926 9.99373V0.672732C20.7926 0.265399 21.0352 0.061732 21.5206 0.061732C21.9972 0.061732 22.2356 0.265399 22.2356 0.672732V9.99373ZM26.681 10.5787C26.6636 10.5787 26.642 10.5744 26.616 10.5657C26.59 10.5657 26.564 10.5657 26.538 10.5657C26.4946 10.5657 26.434 10.5657 26.356 10.5657C26.278 10.5657 26.2043 10.5614 26.135 10.5527C25.9876 10.5441 25.862 10.5051 25.758 10.4357C25.654 10.3577 25.5803 10.2667 25.537 10.1627L23.353 3.45473C23.3096 3.27273 23.3313 3.1124 23.418 2.97373C23.5133 2.8264 23.6606 2.71807 23.86 2.64873C23.9206 2.6314 23.9813 2.6184 24.042 2.60973C24.1026 2.60107 24.1546 2.59673 24.198 2.59673C24.4666 2.59673 24.653 2.74407 24.757 3.03873L25.706 5.98973L26.707 9.08373L28.657 3.03873C28.7523 2.7354 28.9256 2.58373 29.177 2.58373C29.2723 2.58373 29.3936 2.6054 29.541 2.64873C29.7663 2.7094 29.9223 2.8134 30.009 2.96073C30.0956 3.0994 30.1086 3.26407 30.048 3.45473L27.877 10.1627C27.799 10.4054 27.5953 10.5354 27.266 10.5527C27.2486 10.5527 27.227 10.5527 27.201 10.5527C27.1836 10.5614 27.1663 10.5657 27.149 10.5657C27.0796 10.5744 27.019 10.5787 26.967 10.5787C26.915 10.5787 26.8673 10.5787 26.824 10.5787H26.681Z" fill="#FF6B8B"/>
</svg>
