<svg width="25" height="24" viewBox="0 0 25 24" fill="none" xmlns="http://www.w3.org/2000/svg">
<path fill-rule="evenodd" clip-rule="evenodd" d="M13.2 3.5C13.2 3.22386 12.9761 3 12.7 3C12.4238 3 12.2 3.22386 12.2 3.5V4.5H11.2C10.9238 4.5 10.7 4.72386 10.7 5C10.7 5.27614 10.9238 5.5 11.2 5.5H12.2V7.13393C12.5089 6.95536 12.891 6.95536 13.2 7.13393V5.5H14.2C14.4761 5.5 14.7 5.27614 14.7 5C14.7 4.72386 14.4761 4.5 14.2 4.5H13.2V3.5ZM3.69995 19C3.14767 19 2.69995 19.4477 2.69995 20C2.69995 20.5523 3.14767 21 3.69995 21H9.09995H11.8H13.6H16.3H21.7C22.2522 21 22.7 20.5523 22.7 20C22.7 19.4477 22.2522 19 21.7 19H16.3H13.6H11.8H9.09995H3.69995ZM12.4 8.225L9.49995 10.4C8.99634 10.7777 8.69995 11.3705 8.69995 12V17.5C8.69995 17.7761 8.92381 18 9.19995 18H11.2C11.4761 18 11.7 17.7761 11.7 17.5V16.207C11.7 16.0744 11.7526 15.9472 11.8464 15.8535L12.3464 15.3535C12.5417 15.1582 12.8582 15.1582 13.0535 15.3535L13.5535 15.8535C13.6473 15.9472 13.7 16.0744 13.7 16.207V17.5C13.7 17.7761 13.9238 18 14.2 18H16.2C16.4761 18 16.7 17.7761 16.7 17.5V12C16.7 11.3705 16.4036 10.7777 15.9 10.4L13 8.225C12.8222 8.09167 12.5777 8.09167 12.4 8.225Z" fill="#FC3766"/>
<g opacity="0.5">
<path d="M3.69995 17.5V13.2676C3.69995 13.1004 3.7835 12.9443 3.9226 12.8516L4.9226 12.1849C5.09055 12.073 5.30935 12.073 5.4773 12.1849L6.4773 12.8516C6.6164 12.9443 6.69995 13.1004 6.69995 13.2676V17.5C6.69995 17.7762 6.47609 18 6.19995 18H4.19995C3.92381 18 3.69995 17.7762 3.69995 17.5Z" fill="#FC3766"/>
<path d="M18.7 17.5V13.2676C18.7 13.1004 18.7835 12.9443 18.9226 12.8516L19.9226 12.1849C20.0906 12.073 20.3094 12.073 20.4773 12.1849L21.4773 12.8516C21.6164 12.9443 21.7 13.1004 21.7 13.2676V17.5C21.7 17.7762 21.4761 18 21.2 18H19.2C18.9238 18 18.7 17.7762 18.7 17.5Z" fill="#FC3766"/>
</g>
</svg>
