<svg width="21" height="17" viewBox="0 0 21 17" fill="none" xmlns="http://www.w3.org/2000/svg">
<path d="M0.300049 0.909091C0.300049 0.407014 0.707044 0 1.2091 0H2.41296C3.74869 0 4.90449 0.953693 5.12814 2.27685L5.35794 3.63636H18.4676C19.6432 3.63636 20.5385 4.73393 20.2433 5.89847L19.0349 10.6644C18.7255 11.8847 17.619 12.7273 16.3648 12.7273H7.381C7.21302 12.7273 7.04789 12.7122 6.8871 12.6832L7.07382 13.7879C7.16526 14.3288 7.47029 14.5455 7.8165 14.5455H16.6629C17.165 14.5455 17.572 14.9525 17.572 15.4545C17.572 15.9566 17.165 16.3636 16.6629 16.3636H7.8165C6.38836 16.3636 5.48545 15.2996 5.28116 14.0909L3.33547 2.57988C3.26275 2.14963 2.87999 1.81818 2.41296 1.81818H1.2091C0.707044 1.81818 0.300049 1.41117 0.300049 0.909091Z" fill="#FC3766"/>
</svg>
