<svg width="60" height="60" viewBox="0 0 60 60" fill="none" xmlns="http://www.w3.org/2000/svg">
<path fill-rule="evenodd" clip-rule="evenodd" d="M42.5 10C44.4075 10 45.985 11.085 47.14 12.225C48.3425 13.4075 49.445 14.9975 50.425 16.75C52.3925 20.265 54.105 24.8575 55.2375 29.395C56.3625 33.8975 56.985 38.6 56.5875 42.2975C56.1875 46.01 54.275 50 50 50C46.31 50 43.37 48.1 40.965 46.1725L40.0875 45.45L38.8575 44.4125L37.7475 43.4925C35.2 41.43 32.9375 40 30 40C27.0625 40 24.8 41.43 22.2525 43.4925L21.1425 44.4125L19.9125 45.45L19.0375 46.1725C16.6275 48.1 13.6875 50 10 50C5.7225 50 3.81 46.01 3.4125 42.2975C3.0175 38.5975 3.6375 33.8975 4.7625 29.395C5.895 24.8575 7.6075 20.265 9.575 16.7475C10.555 14.9975 11.6575 13.4075 12.86 12.2225C14.015 11.085 15.5925 10 17.5 10C18.7875 10 20.045 10.3075 21.2825 10.675L22.7625 11.1275C23.0092 11.2042 23.255 11.2767 23.5 11.345C25.6625 11.965 27.875 12.5 30 12.5C32.125 12.5 34.3375 11.965 36.5 11.345L38.7125 10.6775C39.9575 10.31 41.225 10 42.5 10ZM42.5 15C41.5425 15 40.5425 15.29 39.5725 15.6075L38.4275 15.985L37.875 16.155C35.6625 16.785 32.875 17.5 30 17.5C27.125 17.5 24.3375 16.785 22.125 16.155L21.575 15.985L20.4275 15.6075C19.4575 15.2875 18.4575 15 17.5 15C16.455 15.195 15.5175 16.4625 14.81 17.6375L14.415 18.325L13.94 19.19C12.235 22.235 10.665 26.39 9.615 30.6075C8.6275 34.5475 8.1475 38.3225 8.33 41.1325L8.395 41.865L8.445 42.305L8.52 42.825C8.6925 43.8275 9.065 45 10 45C12.03 45 13.725 43.99 15.8325 42.315L16.84 41.495L18.74 39.905L19.6 39.205C22.26 37.0975 25.5875 35 30 35C34.4125 35 37.74 37.1 40.4 39.205L41.2625 39.905L43.1625 41.495L44.1675 42.315C46.275 43.99 47.9675 45 50 45C50.85 45 51.235 44.0325 51.4275 43.1025L51.5225 42.5575L51.615 41.765C51.9225 38.9 51.4475 34.8525 50.3875 30.6075C49.4225 26.7425 48.0225 22.9275 46.4825 19.9725L45.585 18.3225L45.19 17.64C44.4825 16.4625 43.545 15.195 42.5 15ZM21.25 20C22.9076 20 24.4973 20.6585 25.6694 21.8306C26.8415 23.0027 27.5 24.5924 27.5 26.25C27.5 27.9076 26.8415 29.4973 25.6694 30.6694C24.4973 31.8415 22.9076 32.5 21.25 32.5C19.5924 32.5 18.0027 31.8415 16.8306 30.6694C15.6585 29.4973 15 27.9076 15 26.25C15 24.5924 15.6585 23.0027 16.8306 21.8306C18.0027 20.6585 19.5924 20 21.25 20ZM38.75 20C39.3623 20.0001 39.9533 20.2249 40.4109 20.6318C40.8685 21.0387 41.1609 21.5994 41.2325 22.2075L41.25 22.5V23.75H42.5C43.1372 23.7507 43.7501 23.9947 44.2134 24.4321C44.6768 24.8695 44.9556 25.4674 44.9929 26.1035C45.0303 26.7396 44.8233 27.3659 44.4143 27.8546C44.0054 28.3432 43.4252 28.6572 42.7925 28.7325L42.5 28.75H41.25V30C41.2493 30.6372 41.0053 31.2501 40.5679 31.7134C40.1305 32.1768 39.5326 32.4556 38.8965 32.4929C38.2604 32.5303 37.6341 32.3233 37.1454 31.9143C36.6568 31.5054 36.3428 30.9252 36.2675 30.2925L36.25 30V28.75H35C34.3628 28.7493 33.7499 28.5053 33.2866 28.0679C32.8232 27.6305 32.5444 27.0326 32.5071 26.3965C32.4697 25.7604 32.6767 25.1341 33.0857 24.6454C33.4946 24.1568 34.0748 23.8428 34.7075 23.7675L35 23.75H36.25V22.5C36.25 21.837 36.5134 21.2011 36.9822 20.7322C37.4511 20.2634 38.087 20 38.75 20ZM21.25 25C20.9185 25 20.6005 25.1317 20.3661 25.3661C20.1317 25.6005 20 25.9185 20 26.25C20 26.5815 20.1317 26.8995 20.3661 27.1339C20.6005 27.3683 20.9185 27.5 21.25 27.5C21.5815 27.5 21.8995 27.3683 22.1339 27.1339C22.3683 26.8995 22.5 26.5815 22.5 26.25C22.5 25.9185 22.3683 25.6005 22.1339 25.3661C21.8995 25.1317 21.5815 25 21.25 25Z" fill="#F1F1F1"/>
</svg>
