<svg width="60" height="60" viewBox="0 0 60 60" fill="none" xmlns="http://www.w3.org/2000/svg">
<g clip-path="url(#clip0_9_1652)">
<path d="M50 35.0001C50.6372 35.0008 51.2501 35.2448 51.7134 35.6823C52.1767 36.1197 52.4556 36.7175 52.4929 37.3536C52.5302 37.9897 52.3233 38.6161 51.9143 39.1047C51.5053 39.5934 50.9252 39.9074 50.2925 39.9826L50 40.0001H16.035L21.7675 45.7326C22.2158 46.1825 22.4762 46.7862 22.4955 47.4211C22.5149 48.056 22.2919 48.6744 21.8719 49.1508C21.4518 49.6273 20.8661 49.9259 20.2338 49.9861C19.6015 50.0464 18.97 49.8637 18.4675 49.4751L18.2325 49.2676L8.65748 39.6926C6.99498 38.0326 8.05998 35.2351 10.315 35.0151L10.6025 35.0001H50ZM38.2325 10.7326C38.663 10.3022 39.2357 10.0436 39.8433 10.0054C40.4508 9.96722 41.0515 10.152 41.5325 10.5251L41.7675 10.7326L51.3425 20.3076C53.005 21.9676 51.94 24.7651 49.685 24.9851L49.3975 25.0001H9.99998C9.36278 24.9994 8.7499 24.7554 8.28656 24.318C7.82322 23.8806 7.54439 23.2828 7.50705 22.6467C7.4697 22.0106 7.67666 21.3842 8.08564 20.8956C8.49461 20.4069 9.07474 20.0929 9.70748 20.0176L9.99998 20.0001H43.965L38.2325 14.2676C37.7638 13.7988 37.5005 13.1631 37.5005 12.5001C37.5005 11.8372 37.7638 11.2015 38.2325 10.7326Z" fill="#F1F1F1"/>
</g>
<defs>
<clipPath id="clip0_9_1652">
<rect width="60" height="60" fill="white"/>
</clipPath>
</defs>
</svg>
