<svg width="25" height="24" viewBox="0 0 25 24" fill="none" xmlns="http://www.w3.org/2000/svg">
<path fill-rule="evenodd" clip-rule="evenodd" d="M13.2917 4.29412C12.8604 3.23529 11.3398 3.23529 10.9085 4.29412L9.41162 7.96863C9.22794 8.41952 8.79866 8.72697 8.30688 8.75985L4.29923 9.02772C3.14441 9.10491 2.67453 10.5305 3.56278 11.262L6.64531 13.8009C7.02356 14.1124 7.18754 14.6099 7.06728 15.0811L6.39854 17.7016L15.4502 8.64993C15.154 8.51756 14.914 8.27654 14.7886 7.96863L13.2917 4.29412Z" fill="#FC3766"/>
<path opacity="0.5" d="M19.9012 9.0277L15.8935 8.75982C15.7376 8.7494 15.5879 8.71137 15.4504 8.6499L6.39874 17.7015L6.08749 18.9211C5.8051 20.0277 7.03525 20.9087 8.01555 20.302L11.4175 18.1966C11.835 17.9383 12.3656 17.9383 12.7831 18.1966L16.185 20.302C17.1653 20.9087 18.3955 20.0277 18.1131 18.9211L17.1331 15.0811C17.0129 14.6099 17.1768 14.1124 17.5551 13.8009L20.6376 11.262C21.5259 10.5304 21.056 9.10489 19.9012 9.0277Z" fill="#FC3766"/>
</svg>
