<svg width="25" height="24" viewBox="0 0 25 24" fill="none" xmlns="http://www.w3.org/2000/svg">
<path d="M1.50004 11.9886C1.51631 5.92502 6.44675 0.994996 12.4881 1C18.5832 1.00501 23.5293 5.96132 23.4999 12.035C23.4704 18.1493 18.5106 23.0355 12.371 22.9998C6.39355 22.9654 1.48377 17.9922 1.50004 11.9886ZM19.5332 11.9962C19.4694 11.5098 19.4356 11.0178 19.3367 10.5389C19.0626 9.20565 18.4305 8.0564 17.4792 7.08429C17.1932 6.79197 16.8458 6.68493 16.4522 6.80824C16.0723 6.92717 15.8326 7.19383 15.7569 7.58818C15.6855 7.95875 15.8357 8.25232 16.0886 8.51585C16.9848 9.45228 17.4548 10.5734 17.4948 11.8666C17.5906 14.9889 14.7724 17.4345 11.6788 16.9199C8.85376 16.4498 6.99937 13.6981 7.62459 10.9051C7.83237 9.97558 8.2736 9.17247 8.93512 8.49018C9.17795 8.2398 9.30938 7.95061 9.24616 7.60008C9.17544 7.2051 8.93825 6.93468 8.55961 6.812C8.1478 6.6793 7.78982 6.7976 7.49629 7.10933C5.8816 8.82444 5.23698 10.8507 5.60811 13.1761C6.20329 16.9018 9.79128 19.4995 13.5201 18.9267C16.9735 18.3966 19.4938 15.474 19.5332 11.9962ZM13.4925 8.01821C13.4938 8.01821 13.4944 8.01821 13.4957 8.01821C13.4957 7.37849 13.4976 6.73876 13.4938 6.09966C13.4932 5.97572 13.4888 5.8474 13.4562 5.72972C13.3236 5.24648 12.8773 4.9598 12.3635 5.01551C11.8897 5.06746 11.5117 5.47245 11.5086 5.97384C11.4998 7.3234 11.5049 8.67296 11.5067 10.0219C11.5067 10.1064 11.5186 10.194 11.5412 10.2754C11.6713 10.7361 12.1307 11.0503 12.5882 10.9971C13.0995 10.9377 13.4782 10.5577 13.4888 10.0544C13.5032 9.37591 13.4925 8.69675 13.4925 8.01821Z" fill="#4F021D"/>
</svg>
