<svg width="23" height="22" viewBox="0 0 23 22" fill="none" xmlns="http://www.w3.org/2000/svg">
<path d="M0.50004 10.9886C0.516312 4.92502 5.44675 -0.00500383 11.4881 3.81149e-06C17.5832 0.00501145 22.5293 4.96132 22.4999 11.035C22.4704 17.1493 17.5106 22.0355 11.371 21.9998C5.39355 21.9654 0.483768 16.9922 0.50004 10.9886ZM18.5332 10.9962C18.4694 10.5098 18.4356 10.0178 18.3367 9.53893C18.0626 8.20565 17.4305 7.0564 16.4792 6.08429C16.1932 5.79197 15.8458 5.68493 15.4522 5.80824C15.0723 5.92717 14.8326 6.19383 14.7569 6.58818C14.6855 6.95875 14.8357 7.25232 15.0886 7.51585C15.9848 8.45228 16.4548 9.57336 16.4948 10.8666C16.5906 13.9889 13.7724 16.4345 10.6788 15.9199C7.85376 15.4498 5.99937 12.6981 6.62459 9.90512C6.83237 8.97558 7.2736 8.17247 7.93512 7.49018C8.17795 7.2398 8.30938 6.95061 8.24616 6.60008C8.17544 6.2051 7.93825 5.93468 7.55961 5.812C7.1478 5.6793 6.78982 5.7976 6.49629 6.10933C4.8816 7.82444 4.23698 9.85066 4.60811 12.1761C5.20329 15.9018 8.79128 18.4995 12.5201 17.9267C15.9735 17.3966 18.4938 14.474 18.5332 10.9962ZM12.4925 7.01821C12.4938 7.01821 12.4944 7.01821 12.4957 7.01821C12.4957 6.37849 12.4976 5.73876 12.4938 5.09966C12.4932 4.97572 12.4888 4.8474 12.4562 4.72972C12.3236 4.24648 11.8773 3.9598 11.3635 4.01551C10.8897 4.06746 10.5117 4.47245 10.5086 4.97384C10.4998 6.3234 10.5049 7.67296 10.5067 9.0219C10.5067 9.1064 10.5186 9.19403 10.5412 9.27541C10.6713 9.73611 11.1307 10.0503 11.5882 9.99713C12.0995 9.93767 12.4782 9.55771 12.4888 9.05445C12.5032 8.37591 12.4925 7.69675 12.4925 7.01821Z" fill="#FF6B8B"/>
</svg>
