<svg width="25" height="24" viewBox="0 0 25 24" fill="none" xmlns="http://www.w3.org/2000/svg">
<path fill-rule="evenodd" clip-rule="evenodd" d="M3.90198 13.0248C4.44057 12.9026 4.97626 13.2401 5.09847 13.7787C5.90685 17.3412 9.09424 20 12.9002 20C15.1097 20 17.1083 19.1056 18.5571 17.6568L20.486 15.7279H21.9002V17.1421L19.9713 19.071C18.1628 20.8796 15.6614 22 12.9002 22C8.1399 22 4.1586 18.6747 3.14806 14.2213C3.02584 13.6827 3.36339 13.147 3.90198 13.0248Z" fill="#FC3766"/>
<path d="M21.9003 17.1422V20.0001C21.9003 20.5524 22.348 21.0001 22.9003 21.0001C23.4526 21.0001 23.9003 20.5524 23.9003 20.0001V14.728C23.9003 14.1757 23.4526 13.728 22.9003 13.728H17.9003C17.348 13.728 16.9003 14.1757 16.9003 14.728C16.9003 15.2803 17.348 15.728 17.9003 15.728H20.4861H21.9003V17.1422Z" fill="#FC3766"/>
<g opacity="0.5">
<path d="M3.90015 6.85786V4C3.90015 3.44772 3.45243 3 2.90015 3C2.34786 3 1.90015 3.44772 1.90015 4V9.27208C1.90015 9.82436 2.34786 10.2721 2.90015 10.2721H7.90015C8.45243 10.2721 8.90015 9.82436 8.90015 9.27208C8.90015 8.71979 8.45243 8.27208 7.90015 8.27208H5.31436H3.90015V6.85786Z" fill="#FC3766"/>
<path fill-rule="evenodd" clip-rule="evenodd" d="M12.9001 4C10.6907 4 8.6921 4.89434 7.24329 6.34315L5.31436 8.27208H3.90015V6.85786L5.82908 4.92893C7.63763 3.12038 10.139 2 12.9001 2C17.6605 2 21.6418 5.32525 22.6523 9.77871C22.7746 10.3173 22.437 10.853 21.8984 10.9752C21.3598 11.0974 20.8241 10.7599 20.7019 10.2213C19.8935 6.65879 16.7062 4 12.9001 4Z" fill="#FC3766"/>
</g>
</svg>
