<svg width="13" height="19" viewBox="0 0 13 19" fill="none" xmlns="http://www.w3.org/2000/svg">
<path fill-rule="evenodd" clip-rule="evenodd" d="M3.125 9.25475L4.08561 13.3835L6.24963 14.4751L8.41414 13.3835L9.37474 9.25475L8.41414 5.1255L6.24963 4.03394L4.08561 5.1255L3.125 9.25475Z" fill="#FF6665"/>
<path fill-rule="evenodd" clip-rule="evenodd" d="M3.39648 10.4129L3.88162 12.5106L5.52189 4.40455L4.50287 4.91729L3.39648 10.4129ZM4.73554 13.7065L5.22067 13.9534L7.13272 4.48057L6.63793 4.23364L4.73554 13.7065ZM5.8902 14.2853L6.24935 14.4751L6.40478 14.3896L8.28738 5.06837L7.79259 4.812L5.8902 14.2853ZM7.64681 13.7636L8.08367 13.5455L9.15096 8.27744L8.9376 7.36623L7.64681 13.7636Z" fill="#FF7777"/>
<path fill-rule="evenodd" clip-rule="evenodd" d="M12.5001 9.25473L10.4717 12.1876L9.375 9.25473L10.4717 6.32185L12.5001 9.25473Z" fill="#FD6867"/>
<path fill-rule="evenodd" clip-rule="evenodd" d="M0 9.25477L2.02838 12.1876L3.12511 9.25477L2.02838 6.3219L0 9.25477Z" fill="#BE0000"/>
<path fill-rule="evenodd" clip-rule="evenodd" d="M10.618 2.61047L12.501 9.25477L10.4727 6.32189L10.618 2.61047Z" fill="#FD0903"/>
<path fill-rule="evenodd" clip-rule="evenodd" d="M10.618 15.8895L12.501 9.25464L10.4727 12.1875L10.618 15.8895Z" fill="#F55C4A"/>
<path fill-rule="evenodd" clip-rule="evenodd" d="M1.87294 2.61047L0 9.25477L2.02838 6.32189L1.87294 2.61047Z" fill="#CB0606"/>
<path fill-rule="evenodd" clip-rule="evenodd" d="M1.87294 15.8895L0 9.25464L2.02838 12.1875L1.87294 15.8895Z" fill="#7E0000"/>
<path fill-rule="evenodd" clip-rule="evenodd" d="M6.25012 0L4.39648 2.61041L6.25012 4.03388L8.10376 2.61041L6.25012 0Z" fill="#FFCCCB"/>
<path fill-rule="evenodd" clip-rule="evenodd" d="M6.25012 18.5L4.39648 15.8896L6.25012 14.4751L8.10376 15.8896L6.25012 18.5Z" fill="#BE0000"/>
<path fill-rule="evenodd" clip-rule="evenodd" d="M10.6174 2.61041L6.25024 0L8.10388 2.61041H10.6174Z" fill="#FC9996"/>
<path fill-rule="evenodd" clip-rule="evenodd" d="M10.6174 15.8895L6.25024 18.4999L8.10388 15.8895H10.6174Z" fill="#7C0000"/>
<path fill-rule="evenodd" clip-rule="evenodd" d="M1.87305 2.61041L6.24985 0L4.39621 2.61041H1.87305Z" fill="#F83635"/>
<path fill-rule="evenodd" clip-rule="evenodd" d="M1.87305 15.8895L6.24985 18.4999L4.39621 15.8895H1.87305Z" fill="#3B0603"/>
<path fill-rule="evenodd" clip-rule="evenodd" d="M8.10388 2.61049L8.41475 5.12553L6.25024 4.03396L8.10388 2.61049Z" fill="#F29796"/>
<path fill-rule="evenodd" clip-rule="evenodd" d="M8.10388 15.8896L8.41475 13.3835L6.25024 14.4751L8.10388 15.8896Z" fill="#FD0903"/>
<path fill-rule="evenodd" clip-rule="evenodd" d="M4.39828 2.61047L4.08789 5.12551L6.25191 4.03395L4.39828 2.61047Z" fill="#F93437"/>
<path fill-rule="evenodd" clip-rule="evenodd" d="M4.39828 15.8896L4.08789 13.3835L6.25191 14.4751L4.39828 15.8896Z" fill="#FD0903"/>
<path fill-rule="evenodd" clip-rule="evenodd" d="M10.4734 6.32187L8.41602 5.12549L9.37662 9.25474L10.4734 6.32187Z" fill="#FD989B"/>
<path fill-rule="evenodd" clip-rule="evenodd" d="M10.4734 12.1875L8.41602 13.3834L9.37662 9.25464L10.4734 12.1875Z" fill="#FD3434"/>
<path fill-rule="evenodd" clip-rule="evenodd" d="M2.0293 6.32187L4.08664 5.12549L3.12603 9.25474L2.0293 6.32187Z" fill="#FB2F2E"/>
<path fill-rule="evenodd" clip-rule="evenodd" d="M2.0293 12.1875L4.08664 13.3834L3.12603 9.25464L2.0293 12.1875Z" fill="#FB0003"/>
<path fill-rule="evenodd" clip-rule="evenodd" d="M10.617 2.61047L10.4717 6.32189L8.41439 5.12551L8.10352 2.61047H10.617Z" fill="white"/>
<path fill-rule="evenodd" clip-rule="evenodd" d="M10.617 15.8896L10.4717 12.1876L8.41439 13.3835L8.10352 15.8896H10.617Z" fill="#C10000"/>
<path fill-rule="evenodd" clip-rule="evenodd" d="M1.87305 2.61047L2.02848 6.32189L4.08582 5.12551L4.39621 2.61047H1.87305Z" fill="#DE0000"/>
<path fill-rule="evenodd" clip-rule="evenodd" d="M1.87305 15.8896L2.02848 12.1876L4.08582 13.3835L4.39621 15.8896H1.87305Z" fill="#BE0000"/>
</svg>
