<svg width="25" height="24" viewBox="0 0 25 24" fill="none" xmlns="http://www.w3.org/2000/svg">
<g opacity="0.5">
<path d="M10.4815 22C11.2346 22 11.8451 21.3895 11.8451 20.6363C11.8451 19.8832 11.2346 19.2727 10.4815 19.2727C9.72841 19.2727 9.11792 19.8832 9.11792 20.6363C9.11792 21.3895 9.72841 22 10.4815 22Z" fill="#FC3766"/>
<path d="M16.8448 22C17.5979 22 18.2084 21.3895 18.2084 20.6363C18.2084 19.8832 17.5979 19.2727 16.8448 19.2727C16.0918 19.2727 15.4813 19.8832 15.4813 20.6363C15.4813 21.3895 16.0918 22 16.8448 22Z" fill="#FC3766"/>
</g>
<path d="M2.30005 2.90909C2.30005 2.40701 2.70704 2 3.2091 2H4.41296C5.74869 2 6.90449 2.95369 7.12814 4.27685L7.35794 5.63636H20.4676C21.6432 5.63636 22.5385 6.73393 22.2433 7.89847L21.0349 12.6644C20.7255 13.8847 19.619 14.7273 18.3648 14.7273H9.381C9.21302 14.7273 9.04789 14.7122 8.8871 14.6832L9.07382 15.7879C9.16526 16.3288 9.47029 16.5455 9.8165 16.5455H18.6629C19.165 16.5455 19.572 16.9525 19.572 17.4545C19.572 17.9566 19.165 18.3636 18.6629 18.3636H9.8165C8.38836 18.3636 7.48545 17.2996 7.28116 16.0909L5.33547 4.57988C5.26275 4.14963 4.87999 3.81818 4.41296 3.81818H3.2091C2.70704 3.81818 2.30005 3.41117 2.30005 2.90909Z" fill="#FC3766"/>
</svg>
