<svg width="25" height="24" viewBox="0 0 25 24" fill="none" xmlns="http://www.w3.org/2000/svg">
<path d="M18.5 21H5.5C3.84315 21 2.5 19.6569 2.5 18V10C2.5 8.69378 3.33481 7.58254 4.5 7.17071C4.81278 7.06015 5.14936 7 5.5 7H18.5C20.0727 7 21.3627 8.21016 21.4897 9.75008C21.5011 9.88768 21.3881 10 21.25 10H15.5C13.2909 10 11.5 11.7909 11.5 14C11.5 16.2091 13.2909 18 15.5 18H21.25C21.3881 18 21.5011 18.1123 21.4897 18.2499C21.3627 19.7898 20.0727 21 18.5 21Z" fill="#FC3766"/>
<g opacity="0.5">
<path d="M16.5 5.00163C16.5 5.10516 16.4161 5.18909 16.3126 5.18909H8.46094C8.34823 5.18909 8.32165 5.03163 8.42811 4.99463L13.8435 3.11248C15.1431 2.66079 16.5 3.62577 16.5 5.00163Z" fill="#FC3766"/>
<path fill-rule="evenodd" clip-rule="evenodd" d="M15.5001 12H22.0001C22.2762 12 22.5001 12.2239 22.5001 12.5V15.5C22.5001 15.7761 22.2762 16 22.0001 16H15.5001C14.3955 16 13.5001 15.1046 13.5001 14C13.5001 12.8954 14.3955 12 15.5001 12ZM16.5001 14C16.5001 14.5523 16.0524 15 15.5001 15C14.9478 15 14.5001 14.5523 14.5001 14C14.5001 13.4477 14.9478 13 15.5001 13C16.0524 13 16.5001 13.4477 16.5001 14Z" fill="#FC3766"/>
</g>
</svg>
